<svg width="40" height="40" viewBox="0 0 40 40" fill="none" xmlns="http://www.w3.org/2000/svg">
<g id="Frame" clip-path="url(#clip0_0_4)">
<g id="Max_logo 1" clip-path="url(#clip1_0_4)">
<path id="Vector" d="M19.4931 1.03237C34.2005 0.265181 43.8029 16.2643 36.707 29.0968C32.9327 35.9252 24.4378 40.1617 16.7275 38.3136C15.0227 37.9044 13.6566 36.9867 12.1259 35.9718L11.7333 35.7111L11.4501 36.089C11.1297 36.5163 10.7008 36.8746 10.2245 37.1974L10.2206 37.2003C9.52755 37.6808 8.53684 38.1882 7.51751 38.4943C6.48405 38.8046 5.50466 38.8834 4.78215 38.6105C4.51219 38.5081 4.35159 38.3701 4.24504 38.2199C4.13389 38.0631 4.06093 37.8622 4.01653 37.6056C3.97165 37.3461 3.9601 37.0577 3.95403 36.7335C3.9482 36.4223 3.94704 36.0683 3.91399 35.7345V35.7335L3.86419 35.2794C3.59152 33.0176 2.99805 30.852 2.44817 28.7082C1.85815 26.4078 1.31403 24.119 1.21087 21.6681C0.738266 10.4615 8.197 1.62263 19.4931 1.03237ZM29.4804 15.2677C27.4922 11.3368 23.3861 9.18603 18.995 9.57436C14.4406 9.97605 11.1871 13.7306 10.2187 17.9083C9.85818 19.4457 9.71963 21.4389 9.81926 23.4005C9.91873 25.3586 10.2582 27.3335 10.8837 28.8214V28.8234C10.9784 29.0463 11.0794 29.2735 11.1943 29.4718C11.3084 29.6688 11.4558 29.8716 11.6601 30.0216C11.8778 30.1815 12.1371 30.2636 12.4296 30.2482C12.6371 30.2372 12.8472 30.1779 13.0605 30.0841L13.2753 29.9796L13.2802 29.9767C13.6761 29.7582 14.0347 29.4658 14.3564 29.1857C14.5879 28.9841 14.7934 28.7954 14.997 28.6212C23.3491 33.9044 33.8407 24.829 29.6659 15.6544V15.6535L29.4804 15.2677Z" fill="#FFEAEF" stroke="#FF95AF"/>
</g>
</g>
<defs>
<clipPath id="clip0_0_4">
<rect width="40" height="40" fill="white"/>
</clipPath>
<clipPath id="clip1_0_4">
<rect width="40" height="40" fill="white"/>
</clipPath>
</defs>
</svg>
