<svg width="40" height="40" viewBox="0 0 40 40" fill="none" xmlns="http://www.w3.org/2000/svg">
<g id="vk-svgrepo-com 1">
<g id="Vector">
<mask id="path-1-inside-1_0_4" fill="white">
<path d="M39.0933 9.64C38.6433 11.055 38.0367 12.2867 37.2767 13.405L37.3083 13.355C36.5617 14.5994 35.67 16.0372 34.6333 17.6683C33.7444 18.9561 33.2739 19.6228 33.2217 19.6683C32.9917 19.9567 32.8317 20.31 32.7767 20.6983L32.775 20.71C32.82 21.0633 32.9833 21.3717 33.2217 21.6017L33.8883 22.345C37.455 26.0106 39.4611 28.5372 39.9067 29.925C39.965 30.0783 39.9983 30.255 39.9983 30.44C39.9983 30.7633 39.895 31.0617 39.72 31.3067L39.7233 31.3017C39.43 31.6033 39.02 31.79 38.5667 31.79C38.5167 31.79 38.465 31.7883 38.4167 31.7833H38.4233H34.0383C34.0367 31.7833 34.0333 31.7833 34.03 31.7833C33.4683 31.7833 32.9517 31.5867 32.5467 31.26L32.5517 31.2633C31.9617 30.7783 31.4367 30.2533 30.9667 29.6833L30.9517 29.6633C30.1839 28.7956 29.5028 28.065 28.9083 27.4717C26.9283 25.5894 25.4672 24.6483 24.525 24.6483C24.49 24.645 24.45 24.6433 24.4083 24.6433C24.1333 24.6433 23.8767 24.7283 23.665 24.8733L23.67 24.87C23.4967 25.0867 23.3917 25.3667 23.3917 25.6683C23.3917 25.7283 23.395 25.785 23.4033 25.8433V25.8367C23.3583 26.36 23.3317 26.9683 23.3317 27.5833C23.3317 27.7817 23.335 27.9783 23.34 28.175V28.1467V30.0783C23.3567 30.1567 23.3667 30.2467 23.3667 30.3383C23.3667 30.7417 23.1833 31.1017 22.8967 31.34L22.895 31.3417C22.25 31.6367 21.4967 31.81 20.7017 31.81C20.5317 31.81 20.365 31.8017 20.2 31.7867L20.2217 31.7883C17.5983 31.7383 15.165 30.97 13.0967 29.675L13.155 29.7083C10.6367 28.1783 8.55 26.1867 6.96 23.8333L6.915 23.7633C5.405 21.76 3.99667 19.4967 2.79667 17.11L2.68 16.8533C1.97833 15.5167 1.25167 13.8733 0.625001 12.1833L0.525001 11.875C0.270001 11.115 0.0850008 10.2317 0.0083341 9.31667L0.00500076 9.275C0.00500076 8.43278 0.500556 8.01167 1.49167 8.01167H5.875C5.915 8.00833 5.96167 8.00667 6.01 8.00667C6.42333 8.00667 6.805 8.14833 7.10667 8.38667L7.10333 8.38333C7.43667 8.74833 7.68333 9.19667 7.805 9.69667L7.81 9.71667C8.61667 11.995 9.47167 13.9083 10.455 15.7417L10.3433 15.5133C11.1467 17.13 12.035 18.5217 13.0483 19.8067L13.01 19.755C13.8989 20.8461 14.5922 21.3917 15.09 21.3917C15.105 21.3933 15.1233 21.3933 15.1433 21.3933C15.39 21.3933 15.605 21.26 15.7217 21.06L15.7233 21.0567C15.8467 20.74 15.9183 20.3717 15.9183 19.9883C15.9183 19.9067 15.915 19.825 15.9083 19.745V19.755V13.29C15.8733 12.5283 15.6867 11.8167 15.375 11.1783L15.3883 11.21C15.1817 10.77 14.9333 10.39 14.6383 10.0517L14.6433 10.0583C14.37 9.785 14.1833 9.42667 14.125 9.02667L14.1233 9.01667C14.1233 8.73333 14.2533 8.47833 14.4567 8.31167L14.4583 8.31C14.66 8.125 14.93 8.01333 15.225 8.01333H15.2383H22.1483C22.185 8.00833 22.2267 8.00667 22.27 8.00667C22.595 8.00667 22.8867 8.15333 23.08 8.38333L23.0817 8.385C23.2533 8.69833 23.355 9.07333 23.355 9.47C23.355 9.53333 23.3517 9.595 23.3467 9.65667V9.64833V18.27C23.3433 18.31 23.3417 18.3567 23.3417 18.4033C23.3417 18.71 23.4267 18.9983 23.5733 19.2433L23.57 19.2367C23.6917 19.4167 23.895 19.5333 24.125 19.5333C24.4183 19.5133 24.6867 19.4167 24.9117 19.2633L24.9067 19.2667C25.36 18.955 25.75 18.6 26.0883 18.1983L26.095 18.19C27.1067 17.0467 28.04 15.7833 28.8533 14.44L28.9183 14.3233C29.4917 13.3733 30.1117 12.2033 30.6733 11.0017L30.7767 10.7567L31.52 9.27C31.7783 8.52667 32.4717 8.00333 33.2867 8.00333C33.3183 8.00333 33.35 8.00333 33.3817 8.005H33.3767H37.7617C38.9461 8.005 39.3906 8.55 39.095 9.64H39.0933Z"/>
</mask>
<path d="M39.0933 9.64C38.6433 11.055 38.0367 12.2867 37.2767 13.405L37.3083 13.355C36.5617 14.5994 35.67 16.0372 34.6333 17.6683C33.7444 18.9561 33.2739 19.6228 33.2217 19.6683C32.9917 19.9567 32.8317 20.31 32.7767 20.6983L32.775 20.71C32.82 21.0633 32.9833 21.3717 33.2217 21.6017L33.8883 22.345C37.455 26.0106 39.4611 28.5372 39.9067 29.925C39.965 30.0783 39.9983 30.255 39.9983 30.44C39.9983 30.7633 39.895 31.0617 39.72 31.3067L39.7233 31.3017C39.43 31.6033 39.02 31.79 38.5667 31.79C38.5167 31.79 38.465 31.7883 38.4167 31.7833H38.4233H34.0383C34.0367 31.7833 34.0333 31.7833 34.03 31.7833C33.4683 31.7833 32.9517 31.5867 32.5467 31.26L32.5517 31.2633C31.9617 30.7783 31.4367 30.2533 30.9667 29.6833L30.9517 29.6633C30.1839 28.7956 29.5028 28.065 28.9083 27.4717C26.9283 25.5894 25.4672 24.6483 24.525 24.6483C24.49 24.645 24.45 24.6433 24.4083 24.6433C24.1333 24.6433 23.8767 24.7283 23.665 24.8733L23.67 24.87C23.4967 25.0867 23.3917 25.3667 23.3917 25.6683C23.3917 25.7283 23.395 25.785 23.4033 25.8433V25.8367C23.3583 26.36 23.3317 26.9683 23.3317 27.5833C23.3317 27.7817 23.335 27.9783 23.34 28.175V28.1467V30.0783C23.3567 30.1567 23.3667 30.2467 23.3667 30.3383C23.3667 30.7417 23.1833 31.1017 22.8967 31.34L22.895 31.3417C22.25 31.6367 21.4967 31.81 20.7017 31.81C20.5317 31.81 20.365 31.8017 20.2 31.7867L20.2217 31.7883C17.5983 31.7383 15.165 30.97 13.0967 29.675L13.155 29.7083C10.6367 28.1783 8.55 26.1867 6.96 23.8333L6.915 23.7633C5.405 21.76 3.99667 19.4967 2.79667 17.11L2.68 16.8533C1.97833 15.5167 1.25167 13.8733 0.625001 12.1833L0.525001 11.875C0.270001 11.115 0.0850008 10.2317 0.0083341 9.31667L0.00500076 9.275C0.00500076 8.43278 0.500556 8.01167 1.49167 8.01167H5.875C5.915 8.00833 5.96167 8.00667 6.01 8.00667C6.42333 8.00667 6.805 8.14833 7.10667 8.38667L7.10333 8.38333C7.43667 8.74833 7.68333 9.19667 7.805 9.69667L7.81 9.71667C8.61667 11.995 9.47167 13.9083 10.455 15.7417L10.3433 15.5133C11.1467 17.13 12.035 18.5217 13.0483 19.8067L13.01 19.755C13.8989 20.8461 14.5922 21.3917 15.09 21.3917C15.105 21.3933 15.1233 21.3933 15.1433 21.3933C15.39 21.3933 15.605 21.26 15.7217 21.06L15.7233 21.0567C15.8467 20.74 15.9183 20.3717 15.9183 19.9883C15.9183 19.9067 15.915 19.825 15.9083 19.745V19.755V13.29C15.8733 12.5283 15.6867 11.8167 15.375 11.1783L15.3883 11.21C15.1817 10.77 14.9333 10.39 14.6383 10.0517L14.6433 10.0583C14.37 9.785 14.1833 9.42667 14.125 9.02667L14.1233 9.01667C14.1233 8.73333 14.2533 8.47833 14.4567 8.31167L14.4583 8.31C14.66 8.125 14.93 8.01333 15.225 8.01333H15.2383H22.1483C22.185 8.00833 22.2267 8.00667 22.27 8.00667C22.595 8.00667 22.8867 8.15333 23.08 8.38333L23.0817 8.385C23.2533 8.69833 23.355 9.07333 23.355 9.47C23.355 9.53333 23.3517 9.595 23.3467 9.65667V9.64833V18.27C23.3433 18.31 23.3417 18.3567 23.3417 18.4033C23.3417 18.71 23.4267 18.9983 23.5733 19.2433L23.57 19.2367C23.6917 19.4167 23.895 19.5333 24.125 19.5333C24.4183 19.5133 24.6867 19.4167 24.9117 19.2633L24.9067 19.2667C25.36 18.955 25.75 18.6 26.0883 18.1983L26.095 18.19C27.1067 17.0467 28.04 15.7833 28.8533 14.44L28.9183 14.3233C29.4917 13.3733 30.1117 12.2033 30.6733 11.0017L30.7767 10.7567L31.52 9.27C31.7783 8.52667 32.4717 8.00333 33.2867 8.00333C33.3183 8.00333 33.35 8.00333 33.3817 8.005H33.3767H37.7617C38.9461 8.005 39.3906 8.55 39.095 9.64H39.0933Z" fill="#FFEAEF" stroke="#FF95AF" stroke-width="2" mask="url(#path-1-inside-1_0_4)"/>
</g>
</g>
</svg>
